<svg width="18" height="18" viewBox="0 0 18 18" fill="none" xmlns="http://www.w3.org/2000/svg">
<path d="M15.2263 12.75C14.7342 12.7172 14.406 12.5938 14.1326 12.2812C13.5857 11.6562 13.5857 10.875 14.347 10.2312L15.6291 9.09297C17.5927 7.3582 17.5927 4.51445 15.6291 2.7793C14.1818 1.50547 12.2396 0.875 10.2209 0.875C7.86384 0.875 5.40095 1.73438 3.50212 3.41836C-0.0314697 6.54336 -0.0314697 11.6574 3.50212 14.7805C5.25994 16.3336 7.6283 17.1082 9.97244 17.1242H10.0443C12.3881 17.1242 14.6955 16.3625 16.3412 14.9066C17.1013 14.2344 17.1013 14.0391 16.3443 12.8891C16.1638 12.5937 15.8123 12.7891 15.2263 12.75ZM3.35134 7.125C3.35134 6.87777 3.42465 6.6361 3.56201 6.43054C3.69936 6.22498 3.89458 6.06476 4.12299 5.97015C4.3514 5.87554 4.60273 5.85079 4.84521 5.89902C5.08768 5.94725 5.31041 6.0663 5.48523 6.24112C5.66004 6.41593 5.77909 6.63866 5.82732 6.88114C5.87556 7.12361 5.8508 7.37495 5.75619 7.60335C5.66158 7.83176 5.50137 8.02699 5.29581 8.16434C5.09024 8.30169 4.84857 8.375 4.60134 8.375C4.26982 8.375 3.95188 8.2433 3.71746 8.00888C3.48304 7.77446 3.35134 7.45652 3.35134 7.125ZM4.91384 12.3984C4.66662 12.3984 4.42494 12.3251 4.21938 12.1878C4.01382 12.0504 3.8536 11.8552 3.75899 11.6268C3.66438 11.3984 3.63963 11.1471 3.68786 10.9046C3.73609 10.6621 3.85514 10.4394 4.02996 10.2646C4.20478 10.0897 4.4275 9.97069 4.66998 9.92246C4.91246 9.87422 5.16379 9.89898 5.3922 9.99359C5.6206 10.0882 5.81583 10.2484 5.95318 10.454C6.09053 10.6595 6.16384 10.9012 6.16384 11.1484C6.16384 11.48 6.03215 11.7979 5.79773 12.0323C5.56331 12.2667 5.24536 12.3984 4.91384 12.3984ZM6.47634 4.625C6.47634 4.37777 6.54965 4.1361 6.68701 3.93054C6.82436 3.72498 7.01958 3.56476 7.24799 3.47015C7.4764 3.37554 7.72773 3.35079 7.97021 3.39902C8.21268 3.44725 8.43541 3.5663 8.61023 3.74112C8.78504 3.91593 8.90409 4.13866 8.95233 4.38114C9.00056 4.62361 8.9758 4.87495 8.88119 5.10335C8.78658 5.33176 8.62637 5.52699 8.42081 5.66434C8.21524 5.80169 7.97357 5.875 7.72634 5.875C7.39482 5.875 7.07688 5.7433 6.84246 5.50888C6.60804 5.27446 6.47634 4.95652 6.47634 4.625ZM8.97634 15.2109C8.6055 15.2109 8.24299 15.101 7.93465 14.8949C7.62631 14.6889 7.38598 14.3961 7.24407 14.0535C7.10215 13.7109 7.06502 13.3339 7.13737 12.9701C7.20972 12.6064 7.38829 12.2723 7.65052 12.0101C7.91274 11.7479 8.24683 11.5693 8.61055 11.497C8.97426 11.4246 9.35126 11.4617 9.69388 11.6037C10.0365 11.7456 10.3293 11.9859 10.5353 12.2942C10.7414 12.6026 10.8513 12.9651 10.8513 13.3359C10.8513 13.8332 10.6538 14.3101 10.3022 14.6618C9.95054 15.0134 9.47362 15.2109 8.97634 15.2109V15.2109ZM11.7888 5.875C11.5416 5.875 11.2999 5.80169 11.0944 5.66434C10.8888 5.52699 10.7286 5.33176 10.634 5.10335C10.5394 4.87495 10.5146 4.62361 10.5629 4.38114C10.6111 4.13866 10.7301 3.91593 10.905 3.74112C11.0798 3.5663 11.3025 3.44725 11.545 3.39902C11.7875 3.35079 12.0388 3.37554 12.2672 3.47015C12.4956 3.56476 12.6908 3.72498 12.8282 3.93054C12.9655 4.1361 13.0388 4.37777 13.0388 4.625C13.0388 4.95652 12.9071 5.27446 12.6727 5.50888C12.4383 5.7433 12.1204 5.875 11.7888 5.875Z" fill="#30B0C7"/>
</svg>
