<svg width="36" height="36" viewBox="0 0 36 36" fill="none" xmlns="http://www.w3.org/2000/svg">
<rect width="36" height="36" rx="18" fill="#1A3947"/>
<g clip-path="url(#clip0_83_589)">
<path d="M28 16.9877C28 15.8306 27.0586 14.8893 25.9015 14.8893C24.7444 14.8893 23.8031 15.8306 23.8031 16.9877C23.8031 17.5141 23.9983 17.9953 24.3195 18.3641L22.1503 20.3541L19.3836 14.6365L21.0006 12.7373L18.0113 9.22607L15.0222 12.7373L16.5672 14.5521L13.8203 20.3215L11.6814 18.363C12.0022 17.9943 12.197 17.5135 12.197 16.9877C12.197 15.8306 11.2556 14.8893 10.0985 14.8893C8.94135 14.8893 7.99998 15.8306 7.99998 16.9877C7.99998 18.0599 8.80862 18.9463 9.84798 19.0707L10.491 26.7739H25.5091L26.1521 19.0707C27.1913 18.9463 28 18.0599 28 16.9877Z" fill="#30B0C7"/>
</g>
<defs>
<clipPath id="clip0_83_589">
<rect width="20" height="20" fill="white" transform="translate(8 8)"/>
</clipPath>
</defs>
</svg>
