<svg width="21" height="20" viewBox="0 0 21 20" fill="none" xmlns="http://www.w3.org/2000/svg">
<path d="M2.35126 14.3328L9.85126 18.75V11.0938L2.35126 6.64062V14.3328ZM7.97626 11.25C8.32157 11.25 8.60126 11.6699 8.60126 12.1875C8.60126 12.7051 8.32157 13.125 7.97626 13.125C7.63094 13.125 7.35126 12.7051 7.35126 12.1875C7.35126 11.6699 7.63094 11.25 7.97626 11.25ZM4.22626 12.5C4.57157 12.5 4.85126 12.9199 4.85126 13.4375C4.85126 13.9551 4.57157 14.375 4.22626 14.375C3.88094 14.375 3.60126 13.9551 3.60126 13.4375C3.60126 12.9199 3.88094 12.5 4.22626 12.5Z" fill="#30B0C7"/>
<path d="M11.1013 11.0938V18.75L18.6013 14.3328V6.64062L11.1013 11.0938ZM12.9763 16.5625C12.6309 16.5625 12.3513 16.1426 12.3513 15.625C12.3513 15.1074 12.6309 14.6875 12.9763 14.6875C13.3216 14.6875 13.6013 15.1074 13.6013 15.625C13.6013 16.1426 13.3216 16.5625 12.9763 16.5625ZM12.9763 13.125C12.6309 13.125 12.3513 12.7051 12.3513 12.1875C12.3513 11.6699 12.6309 11.25 12.9763 11.25C13.3216 11.25 13.6013 11.6699 13.6013 12.1875C13.6013 12.7051 13.3216 13.125 12.9763 13.125ZM16.7263 14.375C16.3809 14.375 16.1013 13.9551 16.1013 13.4375C16.1013 12.9199 16.3809 12.5 16.7263 12.5C17.0716 12.5 17.3513 12.9199 17.3513 13.4375C17.3513 13.9551 17.0716 14.375 16.7263 14.375ZM16.7263 10.9375C16.3809 10.9375 16.1013 10.5176 16.1013 10C16.1013 9.48242 16.3809 9.0625 16.7263 9.0625C17.0716 9.0625 17.3513 9.48242 17.3513 10C17.3513 10.5176 17.0716 10.9375 16.7263 10.9375Z" fill="#30B0C7"/>
<path d="M10.4763 1.25L2.97626 5.625L10.4763 10L17.9763 5.625L10.4763 1.25ZM10.4763 5.9375C9.95868 5.9375 9.53876 5.65781 9.53876 5.3125C9.53876 4.96719 9.95868 4.6875 10.4763 4.6875C10.9938 4.6875 11.4138 4.96719 11.4138 5.3125C11.4138 5.65781 10.9938 5.9375 10.4763 5.9375Z" fill="#30B0C7"/>
</svg>
