<svg width="63" height="22" viewBox="0 0 63 22" fill="none" xmlns="http://www.w3.org/2000/svg">
<path d="M0.5 0.275H4.50407L11.2878 14.2083L11.6849 14.9417L18.601 0.275H22.8037V21.6639H19.296C19.2739 18.6694 19.2629 15.6852 19.2629 12.7111C19.2629 10.287 19.2739 8.33148 19.296 6.84445L19.3621 4.70556L19.296 4.675C18.6341 6.06018 18.1378 7.08889 17.8068 7.76111C17.2553 8.86111 16.5604 10.3176 15.7221 12.1306C14.8838 13.9435 14.1778 15.4713 13.6042 16.7139L12.7769 18.6083H9.8318C8.35371 15.5528 7.25066 13.2611 6.52265 11.7333C5.79464 10.1852 5.17693 8.86111 4.66953 7.76111C4.18419 6.66111 3.88636 5.93796 3.77606 5.59167L3.6106 5.10278L3.54442 5.13333C3.54442 5.19444 3.54442 5.34722 3.54442 5.59167C3.56648 5.83611 3.58854 6.16204 3.6106 6.56945C3.63266 6.95648 3.65472 7.34352 3.67678 7.73056C3.69884 9.15648 3.70987 10.9287 3.70987 13.0472L3.67678 21.6639H0.5V0.275Z" fill="#30B0C7"/>
<path d="M26.0942 0.275H29.5688V11.5194L39.7279 0.275H43.5665L35.6907 9.10556L44.7578 21.6639H40.489L33.3081 11.7028L29.5688 15.95V21.6639H26.0942V0.275Z" fill="#30B0C7"/>
<path d="M54.3264 0C55.9148 0 57.2715 0.244444 58.3967 0.733333C59.5218 1.20185 60.5917 1.96574 61.6065 3.025L59.4887 5.04167C58.6724 4.30833 57.8893 3.76852 57.1392 3.42222C56.3891 3.05556 55.4515 2.87222 54.3264 2.87222C52.9366 2.87222 51.635 3.27963 50.4216 4.09444C49.2303 4.88889 48.2927 5.90741 47.6088 7.15C46.947 8.39259 46.6161 9.67593 46.6161 11C46.6161 12.3241 46.947 13.6176 47.6088 14.8806C48.2927 16.1231 49.2303 17.1417 50.4216 17.9361C51.635 18.7306 52.9366 19.1278 54.3264 19.1278C55.4295 19.1278 56.4884 18.9037 57.5032 18.4556C58.518 18.0074 59.3673 17.3861 60.0512 16.5917L62.5 18.6389C61.4852 19.6981 60.2718 20.5231 58.8599 21.1139C57.4701 21.7046 55.9589 22 54.3264 22C52.1865 22 50.2561 21.5111 48.5354 20.5333C46.8146 19.5352 45.4799 18.2009 44.5313 16.5306C43.6048 14.8602 43.1415 13.0269 43.1415 11.0306C43.1415 9.01389 43.6048 7.17037 44.5313 5.5C45.4799 3.80926 46.8146 2.475 48.5354 1.49722C50.2561 0.499074 52.1865 0 54.3264 0Z" fill="#30B0C7"/>
</svg>
