<svg width="24" height="25" viewBox="0 0 24 25" fill="none" xmlns="http://www.w3.org/2000/svg">
<path d="M12 24.5152C18.6274 24.5152 24 19.1426 24 12.5152C24 5.88773 18.6274 0.515152 12 0.515152C5.37258 0.515152 0 5.88773 0 12.5152C0 19.1426 5.37258 24.5152 12 24.5152Z" fill="#26A17B"/>
<path fill-rule="evenodd" clip-rule="evenodd" d="M13.4415 13.5524V13.5509C13.359 13.5569 12.9337 13.5824 11.985 13.5824C11.2275 13.5824 10.6942 13.5599 10.5067 13.5509V13.5531C7.59073 13.4249 5.41423 12.9171 5.41423 12.3096C5.41423 11.7029 7.59073 11.1951 10.5067 11.0646V13.0476C10.6972 13.0611 11.2432 13.0934 11.9977 13.0934C12.903 13.0934 13.3567 13.0559 13.4415 13.0484V11.0661C16.3515 11.1959 18.5227 11.7036 18.5227 12.3096C18.5227 12.9171 16.3515 13.4234 13.4415 13.5524ZM13.4415 10.8599V9.08539H17.502V6.37939H6.44623V9.08539H10.5067V10.8591C7.20673 11.0106 4.72498 11.6646 4.72498 12.4476C4.72498 13.2306 7.20673 13.8839 10.5067 14.0361V19.7226H13.4415V14.0346C16.7362 13.8831 19.212 13.2299 19.212 12.4476C19.212 11.6654 16.7362 11.0121 13.4415 10.8599Z" fill="white"/>
</svg>
