<svg width="1440" height="943" viewBox="0 0 1440 943" fill="none" xmlns="http://www.w3.org/2000/svg">
<path opacity="0.2" d="M1467.65 -137.214L1428.09 -115.797L1388.53 -94.3802L1348.97 -115.797L1309.4 -137.214L1311.04 -138.102H1308.48L1308.12 -137.91L1307.76 -138.102H1305.2L1306.84 -137.214L1267.28 -115.797L1227.72 -94.3802L1188.15 -115.797L1148.59 -137.214L1150.21 -138.102H1147.64L1147.31 -137.91L1146.98 -138.102H1144.42L1146.03 -137.214L1106.47 -115.797L1066.91 -94.3802L1027.34 -115.797L987.781 -137.214L989.395 -138.102H986.834L986.501 -137.91L986.168 -138.102H983.608L985.221 -137.214L945.658 -115.797L906.096 -94.3802L866.533 -115.797L826.971 -137.214L828.584 -138.102H826.023L825.69 -137.91L825.357 -138.102H822.797L824.41 -137.214L784.847 -115.797L745.285 -94.3802L705.722 -115.797L666.16 -137.214L667.773 -138.102H665.212L664.879 -137.91L664.547 -138.102H661.986L663.599 -137.214L624.036 -115.797L584.474 -94.3802L544.911 -115.797L505.144 -137.238L506.757 -138.102H504.197L503.864 -137.91L503.531 -138.102H500.97L502.583 -137.238L463.021 -115.821L423.458 -94.4042L383.896 -115.821L344.282 -137.238L345.895 -138.102H343.334L343.002 -137.91L342.669 -138.102H340.108L341.721 -137.238L302.159 -115.821L262.596 -94.4042L223.034 -115.821L183.445 -137.238L185.059 -138.102H182.498L182.165 -137.934L181.832 -138.102H179.272L180.885 -137.238L141.322 -115.821L101.76 -94.4042L62.1971 -115.821L22.5834 -137.238L24.1966 -138.102H21.6359L21.303 -137.934L20.9701 -138.102H18.4094L20.0227 -137.238L-19.5399 -115.821L-59 -94.4522V-92.9396L-19.5399 -71.5708L20.0227 -50.1539L-19.5399 -28.7371L-59 -7.36823V-5.85561L-19.5399 15.5132L20.0227 36.9301L-19.5399 58.3469L-59 79.6918V81.2044L-19.5399 102.573L20.0227 123.99L-19.5399 145.407L-59 166.776V168.288L-19.5399 189.657L20.0227 211.074L-19.5399 232.491L-59 253.86V255.372L-19.5399 276.741L20.0227 298.158L-19.5399 319.575L-59 340.944V342.456L-19.5399 363.825L20.0227 385.242L-19.5399 406.659L-59 428.028V429.516L-19.5399 450.885L20.0227 472.302L-19.5399 493.719L-59 515.088V516.576L-19.5399 537.945L20.0227 559.362L-19.5399 580.779L-59 602.148V603.636L-19.5143 625.005L20.0483 646.422L-19.5143 667.839L-59 689.208V690.696L-19.5143 712.065L20.0483 733.482L-19.5143 754.899L-59 776.268V777.756L-19.5143 799.125L20.0483 820.542L-19.5143 841.959L-59 863.328V864.816L-19.5143 886.185L20.0483 907.602L-19.5143 929.019L-43.9944 942.272H-41.4337L-18.2339 929.715L21.3286 908.298L60.8912 929.715L84.091 942.272H86.6516L62.1715 929.019L22.609 907.602L62.1715 886.185L101.734 864.768L141.297 886.185L180.859 907.602L141.297 929.019L116.816 942.272H119.377L142.577 929.715L182.139 908.298L221.702 929.715L244.902 942.272H247.462L222.982 929.019L183.42 907.602L222.982 886.185L262.545 864.768L302.107 886.185L341.67 907.602L302.107 929.019L277.627 942.272H280.188L303.388 929.715L342.95 908.298L382.513 929.715L405.713 942.272H408.273L383.793 929.019L344.231 907.602L383.793 886.185L423.356 864.768L462.918 886.185L502.481 907.602L462.918 929.019L438.438 942.272H440.999L464.199 929.715L503.761 908.298L543.324 929.715L566.524 942.272H569.084L544.604 929.019L505.042 907.602L544.604 886.185L584.167 864.768L623.729 886.185L663.292 907.602L623.729 929.019L599.249 942.272H601.81L625.01 929.715L664.572 908.298L704.135 929.715L727.334 942.272H729.895L705.415 929.019L665.852 907.602L705.415 886.185L744.978 864.768L784.54 886.185L824.103 907.602L784.54 929.019L760.06 942.272H762.621L785.82 929.715L825.383 908.298L864.946 929.715L888.145 942.272H890.706L866.226 929.019L826.663 907.602L866.226 886.185L905.788 864.768L945.351 886.185L984.914 907.602L945.351 929.019L920.871 942.272H923.432L946.631 929.715L986.194 908.298L1025.76 929.715L1048.96 942.272H1051.52L1027.04 929.019L987.474 907.602L1027.04 886.185L1066.6 864.768L1106.16 886.185L1145.72 907.602L1106.16 929.019L1081.68 942.272H1084.24L1107.44 929.715L1147 908.298L1186.57 929.715L1209.74 942.272H1212.3L1187.82 929.019L1148.26 907.602L1187.82 886.185L1227.38 864.768L1266.95 886.185L1306.51 907.602L1266.95 929.019L1242.49 942.272H1245.05L1268.23 929.715L1307.79 908.298L1347.35 929.715L1370.53 942.272H1373.09L1348.61 929.019L1309.04 907.602L1348.61 886.185L1388.17 864.768L1427.73 886.185L1467.29 907.602L1427.73 929.019L1403.25 942.272H1405.81L1428.99 929.715L1468.55 908.298L1476.97 912.86V911.468L1469.83 907.602L1476.97 903.736V902.344L1468.55 906.906L1428.99 885.489L1389.42 864.072L1428.99 842.655L1468.55 821.238L1476.97 825.8V824.408L1469.83 820.542L1476.97 816.677V815.284L1468.55 819.846L1428.99 798.429L1389.42 777.012L1428.99 755.595L1468.55 734.178L1477 738.74V737.348L1469.83 733.482L1477 729.617V728.224L1468.55 732.786L1428.99 711.369L1389.42 689.952L1428.99 668.535L1468.55 647.118L1477 651.68V650.288L1469.83 646.422L1477 642.557V641.164L1468.55 645.726L1428.99 624.309L1389.42 602.892L1428.99 581.475L1468.55 560.058L1477 564.62V563.228L1469.83 559.362L1477 555.497V554.104L1468.55 558.666L1428.99 537.249L1389.42 515.832L1428.99 494.415L1468.55 472.998L1477 477.56V476.168L1469.83 472.278L1477 468.388V466.996L1468.55 471.558L1428.99 450.141L1389.42 428.724L1428.99 407.307L1468.55 385.89L1477 390.452V389.06L1469.83 385.17L1477 381.281V379.888L1468.55 384.474L1428.99 363.057L1389.42 341.64L1428.99 320.223L1468.55 298.806L1477 303.392V302L1469.83 298.11L1477 294.22V292.828L1468.55 297.414L1428.99 275.997L1389.42 254.58L1428.99 233.163L1468.55 211.746L1477 216.332V214.94L1469.83 211.05L1477 207.16V205.768L1468.55 210.354L1428.99 188.937L1389.42 167.52L1428.99 146.103L1468.55 124.686L1477 129.272V127.88L1469.83 123.99L1477 120.1V118.708L1468.55 123.294L1428.99 101.877L1389.42 80.4601L1428.99 59.0432L1468.55 37.6264L1477 42.2123V40.8197L1469.83 36.9301L1477 33.0405V31.6479L1468.55 36.2338L1428.99 14.8169L1389.42 -6.59991L1428.99 -28.0168L1468.55 -49.4336L1477 -44.8477V-46.2403L1469.83 -50.1299L1477 -54.0195V-55.4121L1468.55 -50.8262L1428.99 -72.2431L1389.42 -93.6599L1428.99 -115.077L1468.55 -136.494L1477 -131.908V-133.3L1469.83 -137.19L1471.47 -138.078H1468.91L1468.55 -137.886L1468.19 -138.078H1465.63L1467.27 -137.19L1467.65 -137.214ZM1268.51 -115.101L1308.07 -136.518L1347.63 -115.101L1387.2 -93.6839L1347.63 -72.2671L1308.07 -50.8502L1268.51 -72.2671L1228.95 -93.6839L1268.51 -115.101ZM463.021 363.801L502.583 385.218L463.021 406.635L423.458 428.052L383.896 406.635L344.333 385.218L383.896 363.801L423.458 342.384L463.021 363.801ZM424.739 341.688L464.301 320.271L503.864 298.854L543.426 320.271L582.989 341.688L543.426 363.105L503.864 384.522L464.301 363.105L424.739 341.688ZM464.301 407.331L503.864 385.914L543.426 407.331L582.989 428.748L543.426 450.165L503.864 471.582L464.301 450.165L424.739 428.748L464.301 407.331ZM544.732 406.635L505.17 385.218L544.732 363.801L584.295 342.384L623.857 363.801L663.42 385.218L623.857 406.635L584.295 428.052L544.732 406.635ZM585.575 341.688L625.138 320.271L664.7 298.854L704.263 320.271L743.825 341.688L704.263 363.105L664.7 384.522L625.138 363.105L585.575 341.688ZM625.138 407.331L664.7 385.914L704.263 407.331L743.825 428.748L704.263 450.165L664.7 471.582L625.138 450.165L585.575 428.748L625.138 407.331ZM705.569 406.635L666.006 385.218L705.569 363.801L745.131 342.384L784.694 363.801L824.256 385.218L784.694 406.635L745.131 428.052L705.569 406.635ZM746.411 341.664L785.974 320.247L825.537 298.83L865.099 320.247L904.662 341.664L865.099 363.081L825.537 384.498L785.974 363.081L746.411 341.664ZM785.974 407.307L825.537 385.89L865.099 407.307L904.662 428.724L865.099 450.141L825.537 471.558L785.974 450.141L746.411 428.724L785.974 407.307ZM866.405 406.611L826.843 385.194L866.405 363.777L905.968 342.36L945.53 363.777L985.093 385.194L945.53 406.611L905.968 428.028L866.405 406.611ZM946.836 407.307L986.399 385.89L1025.96 407.307L1065.52 428.724L1025.96 450.141L986.399 471.558L946.836 450.141L907.274 428.724L946.836 407.307ZM946.836 363.081L907.274 341.664L946.836 320.247L986.399 298.83L1025.96 320.247L1065.52 341.664L1025.96 363.081L986.399 384.498L946.836 363.081ZM946.836 275.997L907.274 254.58L946.836 233.163L986.399 211.746L1025.96 233.163L1065.52 254.58L1025.96 275.997L986.399 297.414L946.836 275.997ZM945.556 276.693L985.118 298.11L945.556 319.527L905.993 340.944L866.431 319.527L826.868 298.11L866.431 276.693L905.993 255.276L945.556 276.693ZM865.125 275.997L825.562 297.414L786 275.997L746.437 254.58L786 233.163L825.562 211.746L865.125 233.163L904.687 254.58L865.125 275.997ZM784.694 276.693L824.256 298.11L784.694 319.527L745.131 340.944L705.569 319.527L666.006 298.11L705.569 276.693L745.131 255.276L784.694 276.693ZM704.263 275.997L664.7 297.414L625.138 275.997L585.575 254.58L625.138 233.163L664.7 211.746L704.263 233.163L743.825 254.58L704.263 275.997ZM623.832 276.693L663.394 298.11L623.832 319.527L584.269 340.944L544.707 319.527L505.144 298.11L544.707 276.693L584.269 255.276L623.832 276.693ZM543.401 275.997L503.838 297.414L464.276 275.997L424.713 254.58L464.276 233.163L503.838 211.746L543.401 233.163L582.963 254.58L543.401 275.997ZM462.97 276.693L502.532 298.11L462.97 319.527L423.407 340.944L383.844 319.527L344.282 298.11L383.844 276.693L423.407 255.276L462.97 276.693ZM382.538 275.997L342.976 297.414L303.413 275.997L263.851 254.58L303.413 233.163L342.976 211.746L382.538 233.163L422.101 254.58L382.538 275.997ZM382.538 320.223L422.101 341.64L382.538 363.057L342.976 384.474L303.413 363.057L263.851 341.64L303.413 320.223L342.976 298.806L382.538 320.223ZM382.538 407.307L422.101 428.724L382.538 450.141L342.976 471.558L303.413 450.141L263.851 428.724L303.413 407.307L342.976 385.89L382.538 407.307ZM382.538 494.391L422.101 515.808L382.538 537.225L342.976 558.642L303.413 537.225L263.851 515.808L303.413 494.391L342.976 472.974L382.538 494.391ZM383.819 493.695L344.256 472.278L383.819 450.861L423.381 429.444L462.944 450.861L502.506 472.278L462.944 493.695L423.381 515.112L383.819 493.695ZM464.25 494.391L503.812 472.974L543.375 494.391L582.938 515.808L543.375 537.225L503.812 558.642L464.25 537.225L424.687 515.808L464.25 494.391ZM544.681 493.695L505.118 472.278L544.681 450.861L584.243 429.444L623.806 450.861L663.369 472.278L623.806 493.695L584.243 515.112L544.681 493.695ZM625.112 494.391L664.674 472.974L704.237 494.391L743.8 515.808L704.237 537.225L664.674 558.642L625.112 537.225L585.549 515.808L625.112 494.391ZM705.543 493.695L665.98 472.278L705.543 450.861L745.106 429.444L784.668 450.861L824.231 472.278L784.668 493.695L745.106 515.112L705.543 493.695ZM785.974 494.391L825.537 472.974L865.099 494.391L904.662 515.808L865.099 537.225L825.537 558.642L785.974 537.225L746.411 515.808L785.974 494.391ZM866.405 493.695L826.843 472.278L866.405 450.861L905.968 429.444L945.53 450.861L985.093 472.278L945.53 493.695L905.968 515.112L866.405 493.695ZM946.836 494.391L986.399 472.974L1025.96 494.391L1065.52 515.808L1025.96 537.225L986.399 558.642L946.836 537.225L907.274 515.808L946.836 494.391ZM1027.27 493.695L987.705 472.278L1027.27 450.861L1066.83 429.444L1106.39 450.861L1145.95 472.278L1106.39 493.695L1066.83 515.112L1027.27 493.695ZM1027.27 406.611L987.705 385.194L1027.27 363.777L1066.83 342.36L1106.39 363.777L1145.95 385.194L1106.39 406.611L1066.83 428.028L1027.27 406.611ZM1027.27 319.527L987.705 298.11L1027.27 276.693L1066.83 255.276L1106.39 276.693L1145.95 298.11L1106.39 319.527L1066.83 340.944L1027.27 319.527ZM1027.27 232.443L987.705 211.026L1027.27 189.609L1066.83 168.192L1106.39 189.609L1145.95 211.026L1106.39 232.443L1066.83 253.86L1027.27 232.443ZM1025.99 188.913L986.424 210.33L946.862 188.913L907.299 167.496L946.862 146.079L986.424 124.662L1025.99 146.079L1065.55 167.496L1025.99 188.913ZM945.556 189.609L985.118 211.026L945.556 232.443L905.993 253.86L866.431 232.443L826.868 211.026L866.431 189.609L905.993 168.192L945.556 189.609ZM865.125 188.913L825.562 210.33L786 188.913L746.437 167.496L786 146.079L825.562 124.662L865.125 146.079L904.687 167.496L865.125 188.913ZM784.694 189.609L824.256 211.026L784.694 232.443L745.131 253.86L705.569 232.443L666.006 211.026L705.569 189.609L745.131 168.192L784.694 189.609ZM704.263 188.913L664.7 210.33L625.138 188.913L585.575 167.496L625.138 146.079L664.7 124.662L704.263 146.079L743.825 167.496L704.263 188.913ZM623.832 189.609L663.394 211.026L623.832 232.443L584.269 253.86L544.707 232.443L505.144 211.026L544.707 189.609L584.269 168.192L623.832 189.609ZM543.401 188.913L503.838 210.33L464.276 188.913L424.713 167.496L464.276 146.079L503.838 124.662L543.401 146.079L582.963 167.496L543.401 188.913ZM462.97 189.609L502.532 211.026L462.97 232.443L423.407 253.86L383.844 232.443L344.282 211.026L383.844 189.609L423.407 168.192L462.97 189.609ZM382.538 188.913L342.976 210.33L303.413 188.913L263.851 167.496L303.413 146.079L342.976 124.662L382.538 146.079L422.101 167.496L382.538 188.913ZM302.107 189.609L341.67 211.026L302.107 232.443L262.545 253.86L222.982 232.443L183.42 211.026L222.982 189.609L262.545 168.192L302.107 189.609ZM302.107 276.693L341.67 298.11L302.107 319.527L262.545 340.944L222.982 319.527L183.42 298.11L222.982 276.693L262.545 255.276L302.107 276.693ZM302.107 363.777L341.67 385.194L302.107 406.611L262.545 428.028L222.982 406.611L183.42 385.194L222.982 363.777L262.545 342.36L302.107 363.777ZM302.107 450.861L341.67 472.278L302.107 493.695L262.545 515.112L222.982 493.695L183.42 472.278L222.982 450.861L262.545 429.444L302.107 450.861ZM302.107 537.945L341.67 559.362L302.107 580.779L262.545 602.196L222.982 580.779L183.42 559.362L222.982 537.945L262.545 516.528L302.107 537.945ZM303.388 581.475L342.95 560.058L382.513 581.475L422.075 602.892L382.513 624.309L342.95 645.726L303.388 624.309L263.825 602.892L303.388 581.475ZM383.819 580.779L344.256 559.362L383.819 537.945L423.381 516.528L462.944 537.945L502.506 559.362L462.944 580.779L423.381 602.196L383.819 580.779ZM464.25 581.475L503.812 560.058L543.375 581.475L582.938 602.892L543.375 624.309L503.812 645.726L464.25 624.309L424.687 602.892L464.25 581.475ZM544.681 580.779L505.118 559.362L544.681 537.945L584.243 516.528L623.806 537.945L663.369 559.362L623.806 580.779L584.243 602.196L544.681 580.779ZM625.112 581.475L664.674 560.058L704.237 581.475L743.8 602.892L704.237 624.309L664.674 645.726L625.112 624.309L585.549 602.892L625.112 581.475ZM705.543 580.779L665.98 559.362L705.543 537.945L745.106 516.528L784.668 537.945L824.231 559.362L784.668 580.779L745.106 602.196L705.543 580.779ZM785.974 581.475L825.537 560.058L865.099 581.475L904.662 602.892L865.099 624.309L825.537 645.726L785.974 624.309L746.411 602.892L785.974 581.475ZM866.405 580.779L826.843 559.362L866.405 537.945L905.968 516.528L945.53 537.945L985.093 559.362L945.53 580.779L905.968 602.196L866.405 580.779ZM946.836 581.475L986.399 560.058L1025.96 581.475L1065.52 602.892L1025.96 624.309L986.399 645.726L946.836 624.309L907.274 602.892L946.836 581.475ZM1027.27 580.779L987.705 559.362L1027.27 537.945L1066.83 516.528L1106.39 537.945L1145.95 559.362L1106.39 580.779L1066.83 602.196L1027.27 580.779ZM1107.7 581.475L1147.26 560.058L1186.82 581.475L1226.39 602.892L1186.82 624.309L1147.26 645.726L1107.7 624.309L1068.14 602.892L1107.7 581.475ZM1107.7 537.249L1068.14 515.832L1107.7 494.415L1147.26 472.998L1186.82 494.415L1226.39 515.832L1186.82 537.249L1147.26 558.666L1107.7 537.249ZM1107.7 450.165L1068.14 428.748L1107.7 407.331L1147.26 385.914L1186.82 407.331L1226.39 428.748L1186.82 450.165L1147.26 471.582L1107.7 450.165ZM1107.7 363.081L1068.14 341.664L1107.7 320.247L1147.26 298.83L1186.82 320.247L1226.39 341.664L1186.82 363.081L1147.26 384.498L1107.7 363.081ZM1107.7 275.997L1068.14 254.58L1107.7 233.163L1147.26 211.746L1186.82 233.163L1226.39 254.58L1186.82 275.997L1147.26 297.414L1107.7 275.997ZM1107.7 188.913L1068.14 167.496L1107.7 146.079L1147.26 124.662L1186.82 146.079L1226.39 167.496L1186.82 188.913L1147.26 210.33L1107.7 188.913ZM1107.7 101.829L1068.14 80.4121L1107.7 58.9952L1147.26 37.5783L1186.82 58.9952L1226.39 80.4121L1186.82 101.829L1147.26 123.246L1107.7 101.829ZM1106.42 102.525L1145.98 123.942L1106.42 145.359L1066.86 166.776L1027.29 145.359L987.73 123.942L1027.29 102.525L1066.86 81.1084L1106.42 102.525ZM1025.99 101.829L986.424 123.246L946.862 101.829L907.299 80.4121L946.862 58.9952L986.424 37.5783L1025.99 58.9952L1065.55 80.4121L1025.99 101.829ZM945.556 102.525L985.118 123.942L945.556 145.359L905.993 166.776L866.431 145.359L826.868 123.942L866.431 102.525L905.993 81.1084L945.556 102.525ZM865.125 101.829L825.562 123.246L786 101.829L746.437 80.4121L786 58.9952L825.562 37.5783L865.125 58.9952L904.687 80.4121L865.125 101.829ZM784.694 102.525L824.256 123.942L784.694 145.359L745.131 166.776L705.569 145.359L666.006 123.942L705.569 102.525L745.131 81.1084L784.694 102.525ZM704.263 101.829L664.7 123.246L625.138 101.829L585.575 80.4121L625.138 58.9952L664.7 37.5783L704.263 58.9952L743.825 80.4121L704.263 101.829ZM623.832 102.525L663.394 123.942L623.832 145.359L584.269 166.776L544.707 145.359L505.144 123.942L544.707 102.525L584.269 81.1084L623.832 102.525ZM543.401 101.829L503.838 123.246L464.276 101.829L424.713 80.4121L464.276 58.9952L503.838 37.5783L543.401 58.9952L582.963 80.4121L543.401 101.829ZM462.97 102.525L502.532 123.942L462.97 145.359L423.407 166.776L383.844 145.359L344.282 123.942L383.844 102.525L423.407 81.1084L462.97 102.525ZM382.538 101.829L342.976 123.246L303.413 101.829L263.851 80.4121L303.413 58.9952L342.976 37.5783L382.538 58.9952L422.101 80.4121L382.538 101.829ZM302.107 102.525L341.67 123.942L302.107 145.359L262.545 166.776L222.982 145.359L183.42 123.942L222.982 102.525L262.545 81.1084L302.107 102.525ZM221.676 101.829L182.114 123.246L142.551 101.829L102.989 80.4121L142.551 58.9952L182.114 37.5783L221.676 58.9952L261.239 80.4121L221.676 101.829ZM221.676 146.055L261.239 167.472L221.676 188.889L182.114 210.306L142.551 188.889L102.989 167.472L142.551 146.055L182.114 124.638L221.676 146.055ZM221.676 233.139L261.239 254.556L221.676 275.973L182.114 297.39L142.551 275.973L102.989 254.556L142.551 233.139L182.114 211.722L221.676 233.139ZM221.676 320.223L261.239 341.64L221.676 363.057L182.114 384.474L142.551 363.057L102.989 341.64L142.551 320.223L182.114 298.806L221.676 320.223ZM221.676 407.307L261.239 428.724L221.676 450.141L182.114 471.558L142.551 450.141L102.989 428.724L142.551 407.307L182.114 385.89L221.676 407.307ZM221.676 494.391L261.239 515.808L221.676 537.225L182.114 558.642L142.551 537.225L102.989 515.808L142.551 494.391L182.114 472.974L221.676 494.391ZM221.676 581.475L261.239 602.892L221.676 624.309L182.114 645.726L142.551 624.309L102.989 602.892L142.551 581.475L182.114 560.058L221.676 581.475ZM221.676 668.559L261.239 689.976L221.676 711.393L182.114 732.81L142.551 711.393L102.989 689.976L142.551 668.559L182.114 647.142L221.676 668.559ZM222.957 667.863L183.394 646.446L222.957 625.029L262.519 603.612L302.082 625.029L341.644 646.446L302.082 667.863L262.519 689.28L222.957 667.863ZM303.388 668.559L342.95 647.142L382.513 668.559L422.075 689.976L382.513 711.393L342.95 732.81L303.388 711.393L263.825 689.976L303.388 668.559ZM383.819 667.863L344.256 646.446L383.819 625.029L423.381 603.612L462.944 625.029L502.506 646.446L462.944 667.863L423.381 689.28L383.819 667.863ZM464.25 668.559L503.812 647.142L543.375 668.559L582.938 689.976L543.375 711.393L503.812 732.81L464.25 711.393L424.687 689.976L464.25 668.559ZM544.681 667.863L505.118 646.446L544.681 625.029L584.243 603.612L623.806 625.029L663.369 646.446L623.806 667.863L584.243 689.28L544.681 667.863ZM625.112 668.559L664.674 647.142L704.237 668.559L743.8 689.976L704.237 711.393L664.674 732.81L625.112 711.393L585.549 689.976L625.112 668.559ZM705.543 667.863L665.98 646.446L705.543 625.029L745.106 603.612L784.668 625.029L824.231 646.446L784.668 667.863L745.106 689.28L705.543 667.863ZM785.974 668.559L825.537 647.142L865.099 668.559L904.662 689.976L865.099 711.393L825.537 732.81L785.974 711.393L746.411 689.976L785.974 668.559ZM866.405 667.863L826.843 646.446L866.405 625.029L905.968 603.612L945.53 625.029L985.093 646.446L945.53 667.863L905.968 689.28L866.405 667.863ZM946.836 668.559L986.399 647.142L1025.96 668.559L1065.52 689.976L1025.96 711.393L986.399 732.81L946.836 711.393L907.274 689.976L946.836 668.559ZM1027.27 667.863L987.705 646.446L1027.27 625.029L1066.83 603.612L1106.39 625.029L1145.95 646.446L1106.39 667.863L1066.83 689.28L1027.27 667.863ZM1107.7 668.559L1147.26 647.142L1186.82 668.559L1226.39 689.976L1186.82 711.393L1147.26 732.81L1107.7 711.393L1068.14 689.976L1107.7 668.559ZM1188.13 667.863L1148.57 646.446L1188.13 625.029L1227.69 603.612L1267.25 625.029L1306.82 646.446L1267.25 667.863L1227.69 689.28L1188.13 667.863ZM1188.13 580.779L1148.57 559.362L1188.13 537.945L1227.69 516.528L1267.25 537.945L1306.82 559.362L1267.25 580.779L1227.69 602.196L1188.13 580.779ZM1188.13 493.695L1148.57 472.278L1188.13 450.861L1227.69 429.444L1267.25 450.861L1306.82 472.278L1267.25 493.695L1227.69 515.112L1188.13 493.695ZM1188.13 406.611L1148.57 385.194L1188.13 363.777L1227.69 342.36L1267.25 363.777L1306.82 385.194L1267.25 406.611L1227.69 428.028L1188.13 406.611ZM1188.13 319.527L1148.57 298.11L1188.13 276.693L1227.69 255.276L1267.25 276.693L1306.82 298.11L1267.25 319.527L1227.69 340.944L1188.13 319.527ZM1188.13 232.443L1148.57 211.026L1188.13 189.609L1227.69 168.192L1267.25 189.609L1306.82 211.026L1267.25 232.443L1227.69 253.86L1188.13 232.443ZM1188.13 145.359L1148.57 123.942L1188.13 102.525L1227.69 81.1084L1267.25 102.525L1306.82 123.942L1267.25 145.359L1227.69 166.776L1188.13 145.359ZM1188.13 58.2749L1148.57 36.8581L1188.13 15.4412L1227.69 -5.97566L1267.25 15.4412L1306.82 36.8581L1267.25 58.2749L1227.69 79.6918L1188.13 58.2749ZM1186.85 14.7449L1147.29 36.1618L1107.72 14.7449L1068.16 -6.67195L1107.72 -28.0888L1147.29 -49.5057L1186.85 -28.0888L1226.41 -6.67195L1186.85 14.7449ZM1106.42 15.4412L1145.98 36.8581L1106.42 58.2749L1066.86 79.6918L1027.29 58.2749L987.73 36.8581L1027.29 15.4412L1066.86 -5.97566L1106.42 15.4412ZM1025.99 14.7449L986.424 36.1618L946.862 14.7449L907.299 -6.67195L946.862 -28.0888L986.424 -49.5057L1025.99 -28.0888L1065.55 -6.67195L1025.99 14.7449ZM945.556 15.4412L985.118 36.8581L945.556 58.2749L905.993 79.6918L866.431 58.2749L826.868 36.8581L866.431 15.4412L905.993 -5.97566L945.556 15.4412ZM865.125 14.7449L825.562 36.1618L786 14.7449L746.437 -6.67195L786 -28.0888L825.562 -49.5057L865.125 -28.0888L904.687 -6.67195L865.125 14.7449ZM784.694 15.4412L824.256 36.8581L784.694 58.2749L745.131 79.6918L705.569 58.2749L666.006 36.8581L705.569 15.4412L745.131 -5.97566L784.694 15.4412ZM704.263 14.7449L664.7 36.1618L625.138 14.7449L585.575 -6.67195L625.138 -28.0888L664.7 -49.5057L704.263 -28.0888L743.825 -6.67195L704.263 14.7449ZM623.832 15.4412L663.394 36.8581L623.832 58.2749L584.269 79.6918L544.707 58.2749L505.144 36.8581L544.707 15.4412L584.269 -5.97566L623.832 15.4412ZM543.401 14.7449L503.838 36.1618L464.276 14.7449L424.713 -6.67195L464.276 -28.0888L503.838 -49.5057L543.401 -28.0888L582.963 -6.67195L543.401 14.7449ZM462.97 15.4412L502.532 36.8581L462.97 58.2749L423.407 79.6918L383.844 58.2749L344.282 36.8581L383.844 15.4412L423.407 -5.97566L462.97 15.4412ZM382.538 14.7449L342.976 36.1618L303.413 14.7449L263.851 -6.67195L303.413 -28.0888L342.976 -49.5057L382.538 -28.0888L422.101 -6.67195L382.538 14.7449ZM302.107 15.4412L341.67 36.8581L302.107 58.2749L262.545 79.6918L222.982 58.2749L183.42 36.8581L222.982 15.4412L262.545 -5.97566L302.107 15.4412ZM221.676 14.7449L182.114 36.1618L142.551 14.7449L102.989 -6.67195L142.551 -28.0888L182.114 -49.5057L221.676 -28.0888L261.239 -6.67195L221.676 14.7449ZM141.245 15.4412L180.808 36.8581L141.245 58.2749L101.683 79.6918L62.1203 58.2749L22.5577 36.8581L62.1203 15.4412L101.683 -5.97566L141.245 15.4412ZM141.245 102.525L180.808 123.942L141.245 145.359L101.683 166.776L62.1203 145.359L22.5577 123.942L62.1203 102.525L101.683 81.1084L141.245 102.525ZM141.245 189.609L180.808 211.026L141.245 232.443L101.683 253.86L62.1203 232.443L22.5577 211.026L62.1203 189.609L101.683 168.192L141.245 189.609ZM141.245 276.693L180.808 298.11L141.245 319.527L101.683 340.944L62.1203 319.527L22.5577 298.11L62.1203 276.693L101.683 255.276L141.245 276.693ZM141.245 363.777L180.808 385.194L141.245 406.611L101.683 428.028L62.1203 406.611L22.5577 385.194L62.1203 363.777L101.683 342.36L141.245 363.777ZM141.245 450.861L180.808 472.278L141.245 493.695L101.683 515.112L62.1203 493.695L22.5577 472.278L62.1203 450.861L101.683 429.444L141.245 450.861ZM141.245 537.945L180.808 559.362L141.245 580.779L101.683 602.196L62.1203 580.779L22.5577 559.362L62.1203 537.945L101.683 516.528L141.245 537.945ZM141.245 625.029L180.808 646.446L141.245 667.863L101.683 689.28L62.1203 667.863L22.5577 646.446L62.1203 625.029L101.683 603.612L141.245 625.029ZM141.245 712.113L180.808 733.53L141.245 754.947L101.683 776.364L62.1203 754.947L22.5577 733.53L62.1203 712.113L101.683 690.696L141.245 712.113ZM142.526 755.643L182.088 734.226L221.651 755.643L261.213 777.06L221.651 798.477L182.088 819.894L142.526 798.477L102.963 777.06L142.526 755.643ZM222.957 754.947L183.394 733.53L222.957 712.113L262.519 690.696L302.082 712.113L341.644 733.53L302.082 754.947L262.519 776.364L222.957 754.947ZM303.388 755.643L342.95 734.226L382.513 755.643L422.075 777.06L382.513 798.477L342.95 819.894L303.388 798.477L263.825 777.06L303.388 755.643ZM383.819 754.947L344.256 733.53L383.819 712.113L423.381 690.696L462.944 712.113L502.506 733.53L462.944 754.947L423.381 776.364L383.819 754.947ZM464.25 755.643L503.812 734.226L543.375 755.643L582.938 777.06L543.375 798.477L503.812 819.894L464.25 798.477L424.687 777.06L464.25 755.643ZM544.681 754.947L505.118 733.53L544.681 712.113L584.243 690.696L623.806 712.113L663.369 733.53L623.806 754.947L584.243 776.364L544.681 754.947ZM625.112 755.643L664.674 734.226L704.237 755.643L743.8 777.06L704.237 798.477L664.674 819.894L625.112 798.477L585.549 777.06L625.112 755.643ZM705.543 754.947L665.98 733.53L705.543 712.113L745.106 690.696L784.668 712.113L824.231 733.53L784.668 754.947L745.106 776.364L705.543 754.947ZM785.974 755.643L825.537 734.226L865.099 755.643L904.662 777.06L865.099 798.477L825.537 819.894L785.974 798.477L746.411 777.06L785.974 755.643ZM866.405 754.947L826.843 733.53L866.405 712.113L905.968 690.696L945.53 712.113L985.093 733.53L945.53 754.947L905.968 776.364L866.405 754.947ZM946.836 755.643L986.399 734.226L1025.96 755.643L1065.52 777.06L1025.96 798.477L986.399 819.894L946.836 798.477L907.274 777.06L946.836 755.643ZM1027.27 754.947L987.705 733.53L1027.27 712.113L1066.83 690.696L1106.39 712.113L1145.95 733.53L1106.39 754.947L1066.83 776.364L1027.27 754.947ZM1107.7 755.643L1147.26 734.226L1186.82 755.643L1226.39 777.06L1186.82 798.477L1147.26 819.894L1107.7 798.477L1068.14 777.06L1107.7 755.643ZM1188.13 754.947L1148.57 733.53L1188.13 712.113L1227.69 690.696L1267.25 712.113L1306.82 733.53L1267.25 754.947L1227.69 776.364L1188.13 754.947ZM1268.56 755.643L1308.12 734.226L1347.69 755.643L1387.25 777.06L1347.69 798.477L1308.12 819.894L1268.56 798.477L1229 777.06L1268.56 755.643ZM1268.56 711.417L1229 690L1268.56 668.583L1308.12 647.166L1347.69 668.583L1387.25 690L1347.69 711.417L1308.12 732.834L1268.56 711.417ZM1268.56 624.333L1229 602.916L1268.56 581.499L1308.12 560.082L1347.69 581.499L1387.25 602.916L1347.69 624.333L1308.12 645.75L1268.56 624.333ZM1268.56 537.249L1229 515.832L1268.56 494.415L1308.12 472.998L1347.69 494.415L1387.25 515.832L1347.69 537.249L1308.12 558.666L1268.56 537.249ZM1268.56 450.165L1229 428.748L1268.56 407.331L1308.12 385.914L1347.69 407.331L1387.25 428.748L1347.69 450.165L1308.12 471.582L1268.56 450.165ZM1268.56 363.081L1229 341.664L1268.56 320.247L1308.12 298.83L1347.69 320.247L1387.25 341.664L1347.69 363.081L1308.12 384.498L1268.56 363.081ZM1268.56 275.997L1229 254.58L1268.56 233.163L1308.12 211.746L1347.69 233.163L1387.25 254.58L1347.69 275.997L1308.12 297.414L1268.56 275.997ZM1268.56 188.913L1229 167.496L1268.56 146.079L1308.12 124.662L1347.69 146.079L1387.25 167.496L1347.69 188.913L1308.12 210.33L1268.56 188.913ZM1268.56 101.829L1229 80.4121L1268.56 58.9952L1308.12 37.5783L1347.69 58.9952L1387.25 80.4121L1347.69 101.829L1308.12 123.246L1268.56 101.829ZM1268.56 14.7449L1229 -6.67195L1268.56 -28.0888L1308.12 -49.5057L1347.69 -28.0888L1387.25 -6.67195L1347.69 14.7449L1308.12 36.1618L1268.56 14.7449ZM1267.28 -71.6428L1306.84 -50.226L1267.28 -28.8091L1227.72 -7.39224L1188.15 -28.8091L1148.59 -50.226L1188.15 -71.6428L1227.72 -93.0597L1267.28 -71.6428ZM1107.7 -115.173L1147.26 -136.59L1186.82 -115.173L1226.39 -93.756L1186.82 -72.3391L1147.26 -50.9222L1107.7 -72.3391L1068.14 -93.756L1107.7 -115.173ZM1106.42 -71.6428L1145.98 -50.226L1106.42 -28.8091L1066.86 -7.39224L1027.29 -28.8091L987.73 -50.226L1027.29 -71.6428L1066.86 -93.0597L1106.42 -71.6428ZM946.836 -115.173L986.399 -136.59L1025.96 -115.173L1065.52 -93.756L1025.96 -72.3391L986.399 -50.9222L946.836 -72.3391L907.274 -93.756L946.836 -115.173ZM945.556 -71.6428L985.118 -50.226L945.556 -28.8091L905.993 -7.39224L866.431 -28.8091L826.868 -50.226L866.431 -71.6428L905.993 -93.0597L945.556 -71.6428ZM785.974 -115.173L825.537 -136.59L865.099 -115.173L904.662 -93.756L865.099 -72.3391L825.537 -50.9222L785.974 -72.3391L746.411 -93.756L785.974 -115.173ZM784.694 -71.6428L824.256 -50.226L784.694 -28.8091L745.131 -7.39224L705.569 -28.8091L666.006 -50.226L705.569 -71.6428L745.131 -93.0597L784.694 -71.6428ZM625.112 -115.173L664.674 -136.59L704.237 -115.173L743.8 -93.756L704.237 -72.3391L664.674 -50.9222L625.112 -72.3391L585.549 -93.756L625.112 -115.173ZM623.832 -71.6428L663.394 -50.226L623.832 -28.8091L584.269 -7.39224L544.707 -28.8091L505.144 -50.226L544.707 -71.6428L584.269 -93.0597L623.832 -71.6428ZM464.25 -115.173L503.812 -136.59L543.375 -115.173L582.938 -93.756L543.375 -72.3391L503.812 -50.9222L464.25 -72.3391L424.687 -93.756L464.25 -115.173ZM462.97 -71.6428L502.532 -50.226L462.97 -28.8091L423.407 -7.39224L383.844 -28.8091L344.282 -50.226L383.844 -71.6428L423.407 -93.0597L462.97 -71.6428ZM303.388 -115.173L342.95 -136.59L382.513 -115.173L422.075 -93.756L382.513 -72.3391L342.95 -50.9222L303.388 -72.3391L263.825 -93.756L303.388 -115.173ZM302.107 -71.6428L341.67 -50.226L302.107 -28.8091L262.545 -7.39224L222.982 -28.8091L183.42 -50.226L222.982 -71.6428L262.545 -93.0597L302.107 -71.6428ZM142.526 -115.173L182.165 -136.542L221.728 -115.125L261.29 -93.7079L221.728 -72.2911L182.165 -50.8742L142.603 -72.2911L103.04 -93.7079L142.603 -115.125L142.526 -115.173ZM141.245 -71.6428L180.808 -50.226L141.245 -28.8091L101.683 -7.39224L62.1203 -28.8091L22.5577 -50.226L62.1203 -71.6428L101.683 -93.0597L141.245 -71.6428ZM-18.3107 -72.3391L-57.8477 -93.6839L-18.2851 -115.101L21.303 -136.542L60.8656 -115.125L100.428 -93.7079L60.8656 -72.2911L21.303 -50.8742L-18.2595 -72.2911L-18.3107 -72.3391ZM-18.3107 14.7449L-57.8221 -6.62393L-18.2595 -28.0408L21.303 -49.4576L60.8656 -28.0408L100.428 -6.62393L60.8656 14.7929L21.303 36.2098L-18.2595 14.7929L-18.3107 14.7449ZM-18.3107 101.829L-57.8221 80.4601L-18.2595 59.0432L21.303 37.6264L60.8656 59.0432L100.428 80.4601L60.8656 101.877L21.303 123.294L-18.2595 101.877L-18.3107 101.829ZM-18.3107 188.913L-57.8221 167.52L-18.2595 146.103L21.303 124.686L60.8656 146.103L100.428 167.52L60.8656 188.937L21.303 210.354L-18.2595 188.937L-18.3107 188.913ZM-18.3107 275.997L-57.8221 254.604L-18.2595 233.187L21.303 211.77L60.8656 233.187L100.428 254.604L60.8656 276.021L21.303 297.438L-18.2595 276.021L-18.3107 275.997ZM-18.3107 363.081L-57.8221 341.688L-18.2595 320.271L21.303 298.854L60.8656 320.271L100.428 341.688L60.8656 363.105L21.303 384.522L-18.2595 363.105L-18.3107 363.081ZM-18.3107 450.165L-57.8221 428.748L-18.2595 407.331L21.303 385.914L60.8656 407.331L100.428 428.748L60.8656 450.165L21.303 471.582L-18.2595 450.165H-18.3107ZM-18.3107 537.249L-57.8733 515.832L-18.3107 494.415L21.2518 472.998L60.8143 494.415L100.377 515.832L60.8143 537.249L21.2518 558.666L-18.3107 537.249ZM-18.3107 624.333L-57.8733 602.916L-18.3107 581.499L21.2518 560.082L60.8143 581.499L100.377 602.916L60.8143 624.333L21.2518 645.75L-18.3107 624.333ZM-18.3107 711.417L-57.8733 690L-18.3107 668.583L21.2518 647.166L60.8143 668.583L100.377 690L60.8143 711.417L21.2518 732.834L-18.3107 711.417ZM-18.3107 798.501L-57.8733 777.084L-18.3107 755.667L21.2518 734.25L60.8143 755.667L100.377 777.084L60.8143 798.501L21.2518 819.918L-18.3107 798.501ZM60.8399 885.585L21.2774 907.002L-18.2851 885.585L-57.8477 864.168L-18.2851 842.751L21.2774 821.334L60.8399 842.751L100.402 864.168L60.8399 885.585ZM62.1203 842.055L22.5577 820.638L62.1203 799.221L101.683 777.805L141.245 799.221L180.808 820.638L141.245 842.055L101.683 863.472L62.1203 842.055ZM221.702 885.585L182.139 907.002L142.577 885.585L103.014 864.168L142.577 842.751L182.139 821.334L221.702 842.751L261.265 864.168L221.702 885.585ZM222.982 842.055L183.42 820.638L222.982 799.221L262.545 777.805L302.107 799.221L341.67 820.638L302.107 842.055L262.545 863.472L222.982 842.055ZM382.564 885.585L343.002 907.002L303.439 885.585L263.876 864.168L303.439 842.751L343.002 821.334L382.564 842.751L422.127 864.168L382.564 885.585ZM383.844 842.055L344.282 820.638L383.844 799.221L423.407 777.805L462.97 799.221L502.532 820.638L462.97 842.055L423.407 863.472L383.844 842.055ZM543.426 885.585L503.864 907.002L464.301 885.585L424.739 864.168L464.301 842.751L503.864 821.334L543.426 842.751L582.989 864.168L543.426 885.585ZM544.707 842.055L505.144 820.638L544.707 799.221L584.269 777.805L623.832 799.221L663.394 820.638L623.832 842.055L584.269 863.472L544.707 842.055ZM704.263 885.585L664.7 907.002L625.138 885.585L585.575 864.168L625.138 842.751L664.7 821.334L704.263 842.751L743.825 864.168L704.263 885.585ZM705.543 842.055L665.98 820.638L705.543 799.221L745.106 777.805L784.668 799.221L824.231 820.638L784.668 842.055L745.106 863.472L705.543 842.055ZM865.125 885.585L825.562 907.002L786 885.585L746.437 864.168L786 842.751L825.562 821.334L865.125 842.751L904.687 864.168L865.125 885.585ZM866.405 842.055L826.843 820.638L866.405 799.221L905.968 777.805L945.53 799.221L985.093 820.638L945.53 842.055L905.968 863.472L866.405 842.055ZM1025.99 885.585L986.424 907.002L946.862 885.585L907.299 864.168L946.862 842.751L986.424 821.334L1025.99 842.751L1065.55 864.168L1025.99 885.585ZM1027.27 842.055L987.705 820.638L1027.27 799.221L1066.83 777.805L1106.39 799.221L1145.95 820.638L1106.39 842.055L1066.83 863.472L1027.27 842.055ZM1186.85 885.585L1147.29 907.002L1107.72 885.585L1068.16 864.168L1107.72 842.751L1147.29 821.334L1186.85 842.751L1226.41 864.168L1186.85 885.585ZM1188.13 842.055L1148.57 820.638L1188.13 799.221L1227.69 777.805L1267.25 799.221L1306.82 820.638L1267.25 842.055L1227.69 863.472L1188.13 842.055ZM1347.69 885.585L1308.12 907.002L1268.56 885.585L1229 864.168L1268.56 842.751L1308.12 821.334L1347.69 842.751L1387.25 864.168L1347.69 885.585ZM1428.12 799.197L1467.68 820.614L1428.12 842.031L1388.55 863.448L1348.99 842.031L1309.43 820.614L1348.99 799.197L1388.55 777.78L1428.12 799.197ZM1428.12 712.113L1467.68 733.53L1428.12 754.947L1388.55 776.364L1348.99 754.947L1309.43 733.53L1348.99 712.113L1388.55 690.696L1428.12 712.113ZM1428.12 625.029L1467.68 646.446L1428.12 667.863L1388.55 689.28L1348.99 667.863L1309.43 646.446L1348.99 625.029L1388.55 603.612L1428.12 625.029ZM1428.12 537.945L1467.68 559.362L1428.12 580.779L1388.55 602.196L1348.99 580.779L1309.43 559.362L1348.99 537.945L1388.55 516.528L1428.12 537.945ZM1428.12 450.861L1467.68 472.278L1428.12 493.695L1388.55 515.112L1348.99 493.695L1309.43 472.278L1348.99 450.861L1388.55 429.444L1428.12 450.861ZM1428.12 363.777L1467.68 385.194L1428.12 406.611L1388.55 428.028L1348.99 406.611L1309.43 385.194L1348.99 363.777L1388.55 342.36L1428.12 363.777ZM1428.12 276.693L1467.68 298.11L1428.12 319.527L1388.55 340.944L1348.99 319.527L1309.43 298.11L1348.99 276.693L1388.55 255.276L1428.12 276.693ZM1428.12 189.609L1467.68 211.026L1428.12 232.443L1388.55 253.86L1348.99 232.443L1309.43 211.026L1348.99 189.609L1388.55 168.192L1428.12 189.609ZM1428.12 102.525L1467.68 123.942L1428.12 145.359L1388.55 166.776L1348.99 145.359L1309.43 123.942L1348.99 102.525L1388.55 81.1084L1428.12 102.525ZM1428.12 15.4412L1467.68 36.8581L1428.12 58.2749L1388.55 79.6918L1348.99 58.2749L1309.43 36.8581L1348.99 15.4412L1388.55 -5.97566L1428.12 15.4412ZM1428.12 -71.6428L1467.68 -50.226L1428.12 -28.8091L1388.55 -7.39224L1348.99 -28.8091L1309.43 -50.226L1348.99 -71.6428L1388.55 -93.0597L1428.12 -71.6428Z" fill="url(#paint0_radial_91_2415)"/>
<defs>
<radialGradient id="paint0_radial_91_2415" cx="0" cy="0" r="1" gradientUnits="userSpaceOnUse" gradientTransform="translate(-61.5095 -134.861) scale(2025.68 1899.35)">
<stop stop-color="#EC7029"/>
<stop offset="0.52" stop-color="#C97240"/>
<stop offset="0.93" stop-color="#EC7029"/>
<stop offset="1" stop-color="#C97240"/>
</radialGradient>
</defs>
</svg>
