<svg width="48" height="48" viewBox="0 0 48 48" fill="none" xmlns="http://www.w3.org/2000/svg">
<path d="M28.8153 0.672841C29.3325 -0.114633 30.5521 0.184586 30.6461 1.122L32.3885 18.4947C32.4186 18.7948 32.5825 19.0653 32.8345 19.2308L47.4285 28.8154C48.216 29.3325 47.9168 30.5522 46.9794 30.6462L29.6066 32.3886C29.3065 32.4187 29.0361 32.5826 28.8705 32.8346L19.286 47.4286C18.7688 48.2161 17.5491 47.9169 17.4551 46.9794L15.7128 29.6067C15.6827 29.3066 15.5188 29.0362 15.2667 28.8706L0.672751 19.2861C-0.114723 18.7689 0.184496 17.5492 1.12191 17.4552L18.4947 15.7129C18.7947 15.6828 19.0652 15.5189 19.2307 15.2668L28.8153 0.672841Z" fill="#30B0C7"/>
</svg>
