<svg width="20" height="20" viewBox="0 0 20 20" fill="none" xmlns="http://www.w3.org/2000/svg">
<path fill-rule="evenodd" clip-rule="evenodd" d="M5.3125 7.5C5.06386 7.5 4.8254 7.59877 4.64959 7.77459C4.47377 7.9504 4.375 8.18886 4.375 8.4375V16.5625C4.375 16.8111 4.47377 17.0496 4.64959 17.2254C4.8254 17.4012 5.06386 17.5 5.3125 17.5H14.6875C14.9361 17.5 15.1746 17.4012 15.3504 17.2254C15.5262 17.0496 15.625 16.8111 15.625 16.5625V8.4375C15.625 8.18886 15.5262 7.9504 15.3504 7.77459C15.1746 7.59877 14.9361 7.5 14.6875 7.5H13.125C12.7798 7.5 12.5 7.22018 12.5 6.875C12.5 6.52982 12.7798 6.25 13.125 6.25H14.6875C15.2677 6.25 15.8241 6.48047 16.2343 6.8907C16.6445 7.30094 16.875 7.85734 16.875 8.4375V16.5625C16.875 17.1427 16.6445 17.6991 16.2343 18.1093C15.8241 18.5195 15.2677 18.75 14.6875 18.75H5.3125C4.73234 18.75 4.17594 18.5195 3.7657 18.1093C3.35547 17.6991 3.125 17.1427 3.125 16.5625V8.4375C3.125 7.85734 3.35547 7.30094 3.7657 6.8907C4.17594 6.48047 4.73234 6.25 5.3125 6.25H6.875C7.22018 6.25 7.5 6.52982 7.5 6.875C7.5 7.22018 7.22018 7.5 6.875 7.5H5.3125Z" fill="#30B0C7"/>
<path fill-rule="evenodd" clip-rule="evenodd" d="M6.43306 10.1831C6.67714 9.93898 7.07286 9.93898 7.31694 10.1831L10 12.8661L12.6831 10.1831C12.9271 9.93898 13.3229 9.93898 13.5669 10.1831C13.811 10.4271 13.811 10.8229 13.5669 11.0669L10.4419 14.1919C10.1979 14.436 9.80214 14.436 9.55806 14.1919L6.43306 11.0669C6.18898 10.8229 6.18898 10.4271 6.43306 10.1831Z" fill="#30B0C7"/>
<path fill-rule="evenodd" clip-rule="evenodd" d="M10 1.25C10.3452 1.25 10.625 1.52982 10.625 1.875V13.125C10.625 13.4702 10.3452 13.75 10 13.75C9.65482 13.75 9.375 13.4702 9.375 13.125V1.875C9.375 1.52982 9.65482 1.25 10 1.25Z" fill="#30B0C7"/>
</svg>
