<svg width="20" height="20" viewBox="0 0 20 20" fill="none" xmlns="http://www.w3.org/2000/svg">
<path fill-rule="evenodd" clip-rule="evenodd" d="M14.6875 12.5C14.9361 12.5 15.1746 12.4012 15.3504 12.2254C15.5262 12.0496 15.625 11.8111 15.625 11.5625L15.625 3.4375C15.625 3.18886 15.5262 2.9504 15.3504 2.77459C15.1746 2.59877 14.9361 2.5 14.6875 2.5L5.3125 2.5C5.06386 2.5 4.8254 2.59877 4.64959 2.77459C4.47377 2.9504 4.375 3.18886 4.375 3.4375L4.375 11.5625C4.375 11.8111 4.47377 12.0496 4.64959 12.2254C4.8254 12.4012 5.06386 12.5 5.3125 12.5H6.875C7.22018 12.5 7.5 12.7798 7.5 13.125C7.5 13.4702 7.22018 13.75 6.875 13.75H5.3125C4.73234 13.75 4.17594 13.5195 3.7657 13.1093C3.35547 12.6991 3.125 12.1427 3.125 11.5625L3.125 3.4375C3.125 2.85734 3.35547 2.30094 3.7657 1.8907C4.17594 1.48047 4.73234 1.25 5.3125 1.25L14.6875 1.25C15.2677 1.25 15.8241 1.48047 16.2343 1.8907C16.6445 2.30094 16.875 2.85734 16.875 3.4375V11.5625C16.875 12.1427 16.6445 12.6991 16.2343 13.1093C15.8241 13.5195 15.2677 13.75 14.6875 13.75H13.125C12.7798 13.75 12.5 13.4702 12.5 13.125C12.5 12.7798 12.7798 12.5 13.125 12.5H14.6875Z" fill="#FF3B30"/>
<path fill-rule="evenodd" clip-rule="evenodd" d="M13.5669 9.81694C13.3229 10.061 12.9271 10.061 12.6831 9.81694L10 7.13388L7.31694 9.81694C7.07286 10.061 6.67714 10.061 6.43306 9.81694C6.18898 9.57286 6.18898 9.17714 6.43306 8.93306L9.55806 5.80806C9.80214 5.56398 10.1979 5.56398 10.4419 5.80806L13.5669 8.93306C13.811 9.17714 13.811 9.57286 13.5669 9.81694Z" fill="#FF3B30"/>
<path fill-rule="evenodd" clip-rule="evenodd" d="M10 18.75C9.65482 18.75 9.375 18.4702 9.375 18.125L9.375 6.875C9.375 6.52982 9.65482 6.25 10 6.25C10.3452 6.25 10.625 6.52982 10.625 6.875L10.625 18.125C10.625 18.4702 10.3452 18.75 10 18.75Z" fill="#FF3B30"/>
</svg>
