<svg width="20" height="20" viewBox="0 0 20 20" fill="none" xmlns="http://www.w3.org/2000/svg">
<path fill-rule="evenodd" clip-rule="evenodd" d="M10 3.125C7.75634 3.125 5.9375 4.94384 5.9375 7.1875C5.9375 9.43116 7.75634 11.25 10 11.25C12.2437 11.25 14.0625 9.43116 14.0625 7.1875C14.0625 4.94384 12.2437 3.125 10 3.125ZM4.6875 7.1875C4.6875 4.25349 7.06599 1.875 10 1.875C12.934 1.875 15.3125 4.25349 15.3125 7.1875C15.3125 10.1215 12.934 12.5 10 12.5C7.06599 12.5 4.6875 10.1215 4.6875 7.1875Z" fill="#30B0C7"/>
<path fill-rule="evenodd" clip-rule="evenodd" d="M13.4375 8.75C11.1938 8.75 9.375 10.5688 9.375 12.8125C9.375 15.0562 11.1938 16.875 13.4375 16.875C15.6812 16.875 17.5 15.0562 17.5 12.8125C17.5 10.5688 15.6812 8.75 13.4375 8.75ZM8.125 12.8125C8.125 9.87849 10.5035 7.5 13.4375 7.5C16.3715 7.5 18.75 9.87849 18.75 12.8125C18.75 15.7465 16.3715 18.125 13.4375 18.125C10.5035 18.125 8.125 15.7465 8.125 12.8125Z" fill="#30B0C7"/>
<path fill-rule="evenodd" clip-rule="evenodd" d="M6.5625 8.75C4.31884 8.75 2.5 10.5688 2.5 12.8125C2.5 15.0562 4.31884 16.875 6.5625 16.875C8.80616 16.875 10.625 15.0562 10.625 12.8125C10.625 10.5688 8.80616 8.75 6.5625 8.75ZM1.25 12.8125C1.25 9.87849 3.62849 7.5 6.5625 7.5C9.49651 7.5 11.875 9.87849 11.875 12.8125C11.875 15.7465 9.49651 18.125 6.5625 18.125C3.62849 18.125 1.25 15.7465 1.25 12.8125Z" fill="#30B0C7"/>
</svg>
