<svg width="40" height="40" viewBox="0 0 40 40" fill="none" xmlns="http://www.w3.org/2000/svg">
<g clip-path="url(#clip0_546_560)">
<path d="M40 20C40 23.9556 38.827 27.8224 36.6294 31.1114C34.4318 34.4004 31.3082 36.9638 27.6537 38.4776C23.9992 39.9913 19.9778 40.3874 16.0982 39.6157C12.2186 38.844 8.65492 36.9392 5.85787 34.1421C3.06082 31.3451 1.15601 27.7814 0.384303 23.9018C-0.387401 20.0222 0.0086656 16.0009 1.52242 12.3463C3.03617 8.69181 5.59962 5.56824 8.8886 3.37061C12.1776 1.17298 16.0444 0 20 0C25.3043 0 30.3914 2.10714 34.1421 5.85786C37.8929 9.60859 40 14.6957 40 20Z" fill="#F7931A"/>
<path fill-rule="evenodd" clip-rule="evenodd" d="M14.2145 9.13261L18.8108 10.3635L19.8381 6.53442L22.1363 7.15806L21.149 10.829L23.0235 11.3326L24.0126 7.6217L26.3508 8.24715L25.3435 11.9781C25.3435 11.9781 29.1617 12.8235 30.0599 15.929C30.9581 19.0344 28.0854 20.6653 27.1981 20.7271C27.1981 20.7271 30.5435 22.5617 29.3945 26.1708C28.2454 29.7799 24.7181 30.4253 21.0072 29.5981L19.9999 33.4671L17.6617 32.8417L18.689 29.0326L16.8345 28.5271L15.8072 32.3635L13.4872 31.7399L14.5163 27.9217L9.7981 26.649L10.9872 24.009C10.9872 24.009 12.3181 24.3726 12.8217 24.4926C13.3254 24.6126 13.649 24.089 13.7908 23.5653C13.9326 23.0417 16.069 14.3635 16.2708 13.649C16.4726 12.9344 16.3908 12.3762 15.5435 12.1562C14.6963 11.9362 13.5435 11.5926 13.5435 11.5926L14.2145 9.13261ZM18.8508 20.6253L17.5781 25.6853C17.5781 25.6853 23.889 27.9635 24.6963 24.7581C25.5035 21.5526 18.8508 20.6253 18.8508 20.6253ZM19.4363 18.2253L20.6854 13.589C20.6854 13.589 26.089 14.5562 25.4235 17.1362C24.7581 19.7162 21.5726 18.7272 19.4363 18.2253Z" fill="white"/>
</g>
<defs>
<clipPath id="clip0_546_560">
<rect width="40" height="40" fill="white"/>
</clipPath>
</defs>
</svg>
