<svg width="40" height="40" viewBox="0 0 40 40" fill="none" xmlns="http://www.w3.org/2000/svg">
<g clip-path="url(#clip0_546_568)">
<path d="M20 40C31.0457 40 40 31.0457 40 20C40 8.9543 31.0457 0 20 0C8.9543 0 0 8.9543 0 20C0 31.0457 8.9543 40 20 40Z" fill="#2A5ADA"/>
<path d="M20 7.5L17.7513 8.81875L11.625 12.4312L9.375 13.75V26.25L11.6237 27.5688L17.8075 31.1812L20.0562 32.5L22.305 31.1812L28.3763 27.5688L30.625 26.25V13.75L28.3763 12.4312L22.2487 8.81875L20 7.5ZM13.8725 23.6125V16.3875L20 12.775L26.1275 16.3875V23.6125L20 27.225L13.8725 23.6125Z" fill="white"/>
</g>
<defs>
<clipPath id="clip0_546_568">
<rect width="40" height="40" fill="white"/>
</clipPath>
</defs>
</svg>
