<svg width="34" height="40" viewBox="0 0 34 40" fill="none" xmlns="http://www.w3.org/2000/svg">
<path fill-rule="evenodd" clip-rule="evenodd" d="M26.9063 16.6812C28.6268 18.7297 29.6557 21.3205 29.6557 24.1388C29.6557 26.957 28.5955 29.6269 26.8298 31.687L26.6768 31.865L26.6369 31.6392C26.6021 31.4481 26.5621 31.2536 26.5152 31.0591C25.6306 27.374 22.7491 24.2146 18.0063 21.6551C14.8032 19.9312 12.9697 17.8579 12.4883 15.4995C12.1772 13.975 12.4084 12.4439 12.855 11.132C13.3017 9.8218 13.9656 8.72252 14.5304 8.06164L16.3761 5.92242C16.6993 5.54665 17.3059 5.54665 17.6291 5.92242L26.908 16.6812H26.9063ZM29.8243 14.5436L17.4571 0.205187C17.2207 -0.0683958 16.7793 -0.0683958 16.5429 0.205187L4.17748 14.5436L4.13751 14.5914C1.86254 17.2695 0.5 20.6728 0.5 24.3778C0.5 33.0055 7.88798 40 17 40C26.112 40 33.5 33.0055 33.5 24.3778C33.5 20.6728 32.1375 17.2695 29.8625 14.593L29.8225 14.5452L29.8243 14.5436ZM7.13719 16.635L8.24252 15.3511L8.27554 15.5885C8.30161 15.7764 8.33463 15.9642 8.37287 16.1538C9.0889 19.7153 11.6454 22.6835 15.919 24.9826C19.6347 26.9883 21.7985 29.294 22.4206 31.8222C22.6813 32.877 22.7265 33.9152 22.6135 34.8233L22.6066 34.8794L22.5527 34.9041C20.8756 35.6804 18.9899 36.1171 16.9983 36.1171C10.01 36.1171 4.34432 30.7542 4.34432 24.1371C4.34432 21.2958 5.38882 18.6869 7.13372 16.6317L7.13719 16.635Z" fill="#4DA2FF"/>
</svg>
