<svg width="100" height="25" viewBox="0 0 100 25" fill="none" xmlns="http://www.w3.org/2000/svg">
<circle cx="87.5" cy="12.5" r="12.5" fill="black"/>
<path d="M82.749 15.4614C82.8357 15.3747 82.9548 15.3242 83.0811 15.3242H94.5368C94.7462 15.3242 94.8508 15.5769 94.7028 15.7248L92.4399 17.9878C92.3532 18.0745 92.2341 18.125 92.1078 18.125H80.6521C80.4427 18.125 80.3381 17.8723 80.4861 17.7244L82.749 15.4614Z" fill="url(#paint0_linear_680_1464)"/>
<path d="M82.749 7.01215C82.8393 6.92553 82.9584 6.875 83.0811 6.875H94.5368C94.7462 6.875 94.8508 7.12765 94.7028 7.27563L92.4399 9.53862C92.3532 9.62524 92.2341 9.67577 92.1078 9.67577H80.6521C80.4427 9.67577 80.3381 9.42312 80.4861 9.27514L82.749 7.01215Z" fill="url(#paint1_linear_680_1464)"/>
<path d="M92.4399 11.2097C92.3532 11.123 92.2341 11.0725 92.1078 11.0725H80.6521C80.4427 11.0725 80.3381 11.3252 80.4861 11.4731L82.749 13.7361C82.8357 13.8228 82.9548 13.8733 83.0811 13.8733H94.5368C94.7462 13.8733 94.8508 13.6206 94.7028 13.4727L92.4399 11.2097Z" fill="url(#paint2_linear_680_1464)"/>
<g clip-path="url(#clip0_680_1464)">
<path d="M72.5 25C79.4036 25 85 19.4036 85 12.5C85 5.59644 79.4036 0 72.5 0C65.5964 0 60 5.59644 60 12.5C60 19.4036 65.5964 25 72.5 25Z" fill="#2A5ADA"/>
<path d="M72.5 4.6875L71.0945 5.51172L67.2656 7.76953L65.8594 8.59375V16.4062L67.2648 17.2305L71.1297 19.4883L72.5352 20.3125L73.9406 19.4883L77.7352 17.2305L79.1406 16.4062V8.59375L77.7352 7.76953L73.9055 5.51172L72.5 4.6875ZM68.6703 14.7578V10.2422L72.5 7.98438L76.3297 10.2422V14.7578L72.5 17.0156L68.6703 14.7578Z" fill="white"/>
</g>
<g clip-path="url(#clip1_680_1464)">
<path d="M57.5 25C64.4036 25 70 19.4036 70 12.5C70 5.59644 64.4036 0 57.5 0C50.5964 0 45 5.59644 45 12.5C45 19.4036 50.5964 25 57.5 25Z" fill="#F3BA2F"/>
<path d="M54.4656 11.2531L57.5 8.21875L60.5359 11.2547L62.3016 9.48906L57.5 4.6875L52.7 9.4875L54.4656 11.2531ZM49.6875 12.5L51.4531 10.7344L53.2188 12.5L51.4531 14.2656L49.6875 12.5ZM54.4656 13.7469L57.5 16.7812L60.5359 13.7453L62.3016 15.5102L57.5 20.3125L52.7 15.5125L52.6977 15.5102L54.4656 13.7469ZM61.7812 12.5L63.5469 10.7344L65.3125 12.5L63.5469 14.2656L61.7812 12.5ZM59.2906 12.4984H59.2922V12.5L57.5 14.2922L55.7102 12.5031L55.707 12.5L55.7102 12.4977L56.0234 12.1836L56.1758 12.0312L57.5 10.7078L59.2914 12.4992L59.2906 12.4984Z" fill="white"/>
</g>
<g clip-path="url(#clip2_680_1464)">
<path d="M42.5 25C49.4036 25 55 19.4036 55 12.5C55 5.59644 49.4036 0 42.5 0C35.5964 0 30 5.59644 30 12.5C30 19.4036 35.5964 25 42.5 25Z" fill="#EF0027"/>
<path d="M47.1344 7.74443L35.8594 5.66943L41.793 20.6007L50.0609 10.5272L47.1344 7.74443ZM46.9531 8.6585L48.6781 10.2983L43.9609 11.1522L46.9531 8.6585ZM42.9359 10.9812L37.9641 6.85771L46.0906 8.35303L42.9359 10.9812ZM42.582 11.7108L41.7711 18.414L37.4 7.41162L42.582 11.7101V11.7108ZM43.332 12.0663L48.5562 11.121L42.5641 18.4202L43.332 12.0663Z" fill="white"/>
</g>
<g clip-path="url(#clip3_680_1464)">
<path fill-rule="evenodd" clip-rule="evenodd" d="M27.4512 0C29.9234 0 32.3402 0.733112 34.3958 2.10663C36.4514 3.48015 38.0536 5.43238 38.9997 7.71646C39.9458 10.0005 40.1933 12.5139 39.711 14.9386C39.2287 17.3634 38.0382 19.5907 36.29 21.3388C34.5418 23.087 32.3146 24.2775 29.8898 24.7598C27.465 25.2421 24.9517 24.9946 22.6676 24.0485C20.3836 23.1024 18.4313 21.5002 17.0578 19.4446C15.6843 17.389 14.9512 14.9723 14.9512 12.5C14.9512 9.18479 16.2681 6.00537 18.6123 3.66116C20.9565 1.31696 24.136 0 27.4512 0V0Z" fill="white"/>
<path fill-rule="evenodd" clip-rule="evenodd" d="M27.4511 2.68408L30.7397 7.59772L34.0283 12.5125L27.4511 15.8261L20.8738 12.5L24.1624 7.58522L27.4511 2.68408ZM27.4511 17.15L21.2386 13.8352L27.4511 22.3159L33.6636 13.8352L27.4511 17.15Z" fill="#343434"/>
<path fill-rule="evenodd" clip-rule="evenodd" d="M27.4512 2.68408L30.7398 7.58522L34.0284 12.5L27.4512 10.017V2.68408Z" fill="#343434"/>
<path fill-rule="evenodd" clip-rule="evenodd" d="M27.4512 17.15L33.6762 13.8352L27.4512 22.3284V17.15Z" fill="#313131"/>
<path fill-rule="evenodd" clip-rule="evenodd" d="M27.4512 10.0171L34.0284 12.5L27.4512 15.8137V10.0171Z" fill="#151515"/>
<path fill-rule="evenodd" clip-rule="evenodd" d="M27.4511 2.68408L24.1624 7.58522L20.8738 12.5L27.4511 10.017V2.68408Z" fill="#8C8C8C"/>
<path fill-rule="evenodd" clip-rule="evenodd" d="M27.451 17.15L21.2385 13.8352L27.451 22.3284V17.15Z" fill="#8A8A8A"/>
<path fill-rule="evenodd" clip-rule="evenodd" d="M27.4511 10.0171L20.8738 12.5L27.4511 15.8137V10.0171Z" fill="#353535"/>
</g>
<g clip-path="url(#clip4_680_1464)">
<path d="M25 12.5C25 14.9723 24.2669 17.389 22.8934 19.4446C21.5199 21.5002 19.5676 23.1024 17.2835 24.0485C14.9995 24.9946 12.4861 25.2421 10.0614 24.7598C7.63661 24.2775 5.40933 23.087 3.66117 21.3388C1.91301 19.5907 0.722505 17.3634 0.24019 14.9386C-0.242126 12.5139 0.005416 10.0005 0.951511 7.71646C1.89761 5.43238 3.49976 3.48015 5.55538 2.10663C7.61099 0.733112 10.0277 0 12.5 0C15.8152 0 18.9946 1.31696 21.3388 3.66116C23.683 6.00537 25 9.18479 25 12.5Z" fill="#F7931A"/>
<path fill-rule="evenodd" clip-rule="evenodd" d="M8.88401 5.70785L11.7567 6.47717L12.3988 4.08398L13.8351 4.47376L13.2181 6.76808L14.3897 7.08285L15.0079 4.76353L16.4692 5.15444L15.8397 7.48626C15.8397 7.48626 18.2261 8.01467 18.7874 9.95558C19.3488 11.8965 17.5533 12.9158 16.9988 12.9544C16.9988 12.9544 19.0897 14.101 18.3715 16.3567C17.6533 18.6124 15.4488 19.0158 13.1295 18.4988L12.4999 20.9169L11.0386 20.526L11.6806 18.1453L10.5215 17.8294L9.87946 20.2272L8.42946 19.8374L9.07264 17.451L6.12378 16.6556L6.86696 15.0056C6.86696 15.0056 7.69878 15.2328 8.01355 15.3078C8.32832 15.3828 8.5306 15.0556 8.61923 14.7283C8.70787 14.401 10.0431 8.97717 10.1692 8.53058C10.2954 8.08398 10.2442 7.73512 9.71469 7.59762C9.18514 7.46012 8.46469 7.24535 8.46469 7.24535L8.88401 5.70785ZM11.7817 12.8908L10.9863 16.0533C10.9863 16.0533 14.9306 17.4772 15.4351 15.4738C15.9397 13.4703 11.7817 12.8908 11.7817 12.8908ZM12.1476 11.3908L12.9283 8.49307C12.9283 8.49307 16.3056 9.09762 15.8897 10.7101C15.4738 12.3226 13.4829 11.7044 12.1476 11.3908Z" fill="white"/>
</g>
<defs>
<linearGradient id="paint0_linear_680_1464" x1="54.5248" y1="4.74973" x2="54.22" y2="20.0871" gradientUnits="userSpaceOnUse">
<stop stop-color="#00FFA3"/>
<stop offset="1" stop-color="#DC1FFF"/>
</linearGradient>
<linearGradient id="paint1_linear_680_1464" x1="51.0581" y1="2.93984" x2="50.7533" y2="18.2772" gradientUnits="userSpaceOnUse">
<stop stop-color="#00FFA3"/>
<stop offset="1" stop-color="#DC1FFF"/>
</linearGradient>
<linearGradient id="paint2_linear_680_1464" x1="52.7804" y1="3.83899" x2="52.4756" y2="19.1763" gradientUnits="userSpaceOnUse">
<stop stop-color="#00FFA3"/>
<stop offset="1" stop-color="#DC1FFF"/>
</linearGradient>
<clipPath id="clip0_680_1464">
<rect width="25" height="25" fill="white" transform="translate(60)"/>
</clipPath>
<clipPath id="clip1_680_1464">
<rect width="25" height="25" fill="white" transform="translate(45)"/>
</clipPath>
<clipPath id="clip2_680_1464">
<rect width="25" height="25" fill="white" transform="translate(30)"/>
</clipPath>
<clipPath id="clip3_680_1464">
<rect width="25" height="25" fill="white" transform="translate(15)"/>
</clipPath>
<clipPath id="clip4_680_1464">
<rect width="25" height="25" fill="white"/>
</clipPath>
</defs>
</svg>
