<svg width="41" height="40" viewBox="0 0 41 40" fill="none" xmlns="http://www.w3.org/2000/svg">
<g clip-path="url(#clip0_546_571)">
<path d="M20.5 40C31.5457 40 40.5 31.0457 40.5 20C40.5 8.9543 31.5457 0 20.5 0C9.4543 0 0.5 8.9543 0.5 20C0.5 31.0457 9.4543 40 20.5 40Z" fill="#EF0027"/>
<path d="M27.915 12.391L9.875 9.07104L19.3687 32.961L32.5975 16.8435L27.915 12.391ZM27.625 13.8535L30.385 16.4773L22.8375 17.8435L27.625 13.8535ZM21.1975 17.5698L13.2425 10.9723L26.245 13.3648L21.1975 17.5698ZM20.6312 18.7373L19.3337 29.4623L12.34 11.8585L20.6312 18.736V18.7373ZM21.8312 19.306L30.19 17.7935L20.6025 29.4723L21.8312 19.306Z" fill="white"/>
</g>
<defs>
<clipPath id="clip0_546_571">
<rect width="40" height="40" fill="white" transform="translate(0.5)"/>
</clipPath>
</defs>
</svg>
